<?xml version="1.0" encoding="UTF-8" standalone="no"?>
<svg
   xmlns:dc="http://purl.org/dc/elements/1.1/"
   xmlns:cc="http://creativecommons.org/ns#"
   xmlns:rdf="http://www.w3.org/1999/02/22-rdf-syntax-ns#"
   xmlns:svg="http://www.w3.org/2000/svg"
   xmlns="http://www.w3.org/2000/svg"
   xmlns:sodipodi="http://sodipodi.sourceforge.net/DTD/sodipodi-0.dtd"
   xmlns:inkscape="http://www.inkscape.org/namespaces/inkscape"
   width="40px"
   height="40px"
   viewBox="0 0 40 40"
   version="1.1"
   id="svg2"
   inkscape:version="0.91 r13725"
   sodipodi:docname="linkedin_c copy 8.svg">
  <metadata
     id="metadata16">
    <rdf:RDF>
      <cc:Work
         rdf:about="">
        <dc:format>image/svg+xml</dc:format>
        <dc:type
           rdf:resource="http://purl.org/dc/dcmitype/StillImage" />
      </cc:Work>
    </rdf:RDF>
  </metadata>
  <sodipodi:namedview
     pagecolor="#ffffff"
     bordercolor="#666666"
     borderopacity="1"
     objecttolerance="10"
     gridtolerance="10"
     guidetolerance="10"
     inkscape:pageopacity="0"
     inkscape:pageshadow="2"
     inkscape:window-width="1313"
     inkscape:window-height="744"
     id="namedview14"
     showgrid="false"
     inkscape:zoom="5.9"
     inkscape:cx="20"
     inkscape:cy="20"
     inkscape:window-x="53"
     inkscape:window-y="24"
     inkscape:window-maximized="1"
     inkscape:current-layer="svg2" />
  <!-- Generator: Sketch 47 (45396) - http://www.bohemiancoding.com/sketch -->
  <title
     id="title4">linkedin_c copy 8</title>
  <desc
     id="desc6">Created with Sketch.</desc>
  <defs
     id="defs8" />
  <g
     id="Page-1"
     stroke="none"
     stroke-width="1"
     fill="none"
     fill-rule="evenodd">
    <g
       id="Pindex-Desktop"
       transform="translate(-263.000000, -8820.000000)"
       fill="#38A6D7">
      <g
         id="Group-20"
         transform="translate(263.000000, 8820.000000)">
        <path
           d="M20,40 C8.95430446,40 0,31.0456955 0,20 C0,8.95430446 8.95430446,0 20,0 C31.0456955,0 40,8.95430446 40,20 C40,31.0456955 31.0456955,40 20,40 Z M14.6938776,29.3877551 L14.6938776,14.6938776 L9.79591837,14.6938776 L9.79591837,29.3877551 L14.6938776,29.3877551 Z M12.2300356,8.16326531 C10.7395633,8.16326531 9.76619369,9.21968788 9.79661149,10.6282513 C9.76619369,11.9727891 10.7395633,13.0612245 12.1996178,13.0612245 C13.7205079,13.0612245 14.6938776,11.9727891 14.6938776,10.6282513 C14.6634597,9.21968788 13.7205079,8.16326531 12.2300356,8.16326531 Z M18.0708181,29.3877551 L22.3129252,29.3877551 L22.3129252,21.1004082 C22.3129252,20.6889796 22.3687424,20.2481633 22.4803768,19.9836735 C22.7594628,19.1608163 23.4571777,18.3085714 24.6293389,18.3085714 C26.1643119,18.3085714 26.7783011,19.5722449 26.7783011,21.4236735 L26.7783011,29.3877551 L31.0204082,29.3877551 L31.0204082,20.8653061 C31.0204082,16.6334694 28.9272632,14.6938776 26.1364033,14.6938776 C23.8758067,14.6938776 22.4803768,16.075102 21.9222048,16.9861224 L21.838479,16.9861224 L21.6431188,15.0171429 L17.9591837,15.0171429 C18.0150009,16.2808163 18.0708181,17.8089796 18.0708181,19.6016327 L18.0708181,29.3877551 Z"
           id="linkedin_c-copy-8" />
      </g>
    </g>
  </g>
  <path
     style="fill:#000000;fill-opacity:0"
     d="m 9.8983051,22.101695 0,-7.288136 2.3728809,0 2.372882,0 0,7.288136 0,7.288136 -2.372882,0 -2.3728809,0 0,-7.288136 z"
     id="path3344"
     inkscape:connector-curvature="0" />
  <path
     style="fill:#000000;fill-opacity:0"
     d="m 10.965856,12.617031 c -0.692974,-0.42253 -1.0677202,-1.151258 -1.0669173,-2.074716 0.00124,-1.4219714 1.1842393,-2.4747033 2.5717973,-2.2885928 3.029776,0.4063783 2.746496,4.6977648 -0.30991,4.6947968 -0.358793,-3.56e-4 -0.89653,-0.149518 -1.19497,-0.331488 z"
     id="path3346"
     inkscape:connector-curvature="0" />
  <path
     style="fill:#000000;fill-opacity:0"
     d="m 18.202703,24.432203 c -3.79e-4,-2.726695 -0.05028,-5.930084 -0.110903,-7.118644 l -0.110214,-2.161017 1.793621,0 1.793621,0 0.116471,0.932204 c 0.06406,0.512712 0.131272,0.932203 0.149361,0.932203 0.01809,0 0.416896,-0.370132 0.886236,-0.822517 2.521616,-2.430515 6.460715,-1.614084 7.764723,1.609342 0.301725,0.745845 0.338634,1.329879 0.392119,6.204701 l 0.05904,5.381356 -2.044661,0 -2.04466,0 -9.46e-4,-4.364407 c -5.5e-4,-2.541225 -0.07572,-4.633693 -0.179952,-5.009034 -0.581122,-2.092688 -2.935595,-2.40036 -4.011229,-0.524169 -0.366133,0.638631 -0.37866,0.812039 -0.381356,5.278965 l -0.0028,4.618645 -2.033898,0 -2.033898,0 -6.87e-4,-4.957628 z"
     id="path3348"
     inkscape:connector-curvature="0" />
  <path
     style="fill:#000000;fill-opacity:0"
     d="m 18.202703,24.432203 c -3.79e-4,-2.726695 -0.05028,-5.930084 -0.110903,-7.118644 l -0.110214,-2.161017 1.793621,0 1.793621,0 0.116471,0.932204 c 0.06406,0.512712 0.131272,0.932203 0.149361,0.932203 0.01809,0 0.416896,-0.370132 0.886236,-0.822517 2.521616,-2.430515 6.460715,-1.614084 7.764723,1.609342 0.301725,0.745845 0.338634,1.329879 0.392119,6.204701 l 0.05904,5.381356 -2.044661,0 -2.04466,0 -9.46e-4,-4.364407 c -5.5e-4,-2.541225 -0.07572,-4.633693 -0.179952,-5.009034 -0.581122,-2.092688 -2.935595,-2.40036 -4.011229,-0.524169 -0.366133,0.638631 -0.37866,0.812039 -0.381356,5.278965 l -0.0028,4.618645 -2.033898,0 -2.033898,0 -6.87e-4,-4.957628 z"
     id="path3350"
     inkscape:connector-curvature="0" />
</svg>
