<?xml version="1.0" encoding="UTF-8"?>
<svg width="30px" height="30px" viewBox="0 0 30 30" version="1.1" xmlns="http://www.w3.org/2000/svg" xmlns:xlink="http://www.w3.org/1999/xlink">
    <!-- Generator: Sketch 47 (45396) - http://www.bohemiancoding.com/sketch -->
    <title>Fill 169</title>
    <desc>Created with Sketch.</desc>
    <defs></defs>
    <g id="Page-1" stroke="none" stroke-width="1" fill="none" fill-rule="evenodd">
        <g id="Pindex-Desktop" transform="translate(-843.000000, -2167.000000)" fill="#FFFFFF">
            <g id="Group-5-Copy" transform="translate(843.000000, 2167.000000)">
                <g id="Fill-169">
                    <g id="Group-11">
                        <path d="M22.1340659,21.1450549 L20.3340659,21.1450549 L20.3340659,19.3450549 L22.1340659,19.3450549 L22.1340659,21.1450549 Z M11.3340659,19.3450549 L11.3340659,19.0453549 C11.3340659,18.3838549 10.9002659,17.8267549 10.3044659,17.6287549 L14.9340659,11.0146549 L19.5636659,17.6287549 C18.9678659,17.8267549 18.5340659,18.3838549 18.5340659,19.0453549 L18.5340659,19.3450549 L11.3340659,19.3450549 Z M9.53406593,21.1450549 L7.73406593,21.1450549 L7.73406593,19.3450549 L9.53406593,19.3450549 L9.53406593,21.1450549 Z M14.0340659,6.74505495 L15.8340659,6.74505495 L15.8340659,8.54505495 L14.0340659,8.54505495 L14.0340659,6.74505495 Z M22.4337659,17.5450549 L21.7029659,17.5450549 L16.6044659,10.2622549 C17.2002659,10.0633549 17.6340659,9.50715495 17.6340659,8.84565495 L17.6340659,6.44535495 C17.6340659,5.61825495 16.9608659,4.94505495 16.1337659,4.94505495 L13.7343659,4.94505495 C12.9072659,4.94505495 12.2340659,5.61825495 12.2340659,6.44535495 L12.2340659,8.84565495 C12.2340659,9.50715495 12.6678659,10.0633549 13.2636659,10.2622549 L8.16516593,17.5450549 L7.43436593,17.5450549 C6.60726593,17.5450549 5.93406593,18.2182549 5.93406593,19.0453549 L5.93406593,21.4456549 C5.93406593,22.2727549 6.60726593,22.9450549 7.43436593,22.9450549 L9.83376593,22.9450549 C10.6608659,22.9450549 11.3340659,22.2727549 11.3340659,21.4456549 L11.3340659,21.1450549 L18.5340659,21.1450549 L18.5340659,21.4456549 C18.5340659,22.2727549 19.2072659,22.9450549 20.0343659,22.9450549 L22.4337659,22.9450549 C23.2608659,22.9450549 23.9340659,22.2727549 23.9340659,21.4456549 L23.9340659,19.0453549 C23.9340659,18.2182549 23.2608659,17.5450549 22.4337659,17.5450549 L22.4337659,17.5450549 Z M15,30 C23.2842712,30 30,23.2842712 30,15 C30,6.71572875 23.2842712,8.8817842e-16 15,8.8817842e-16 C6.71572875,8.8817842e-16 8.8817842e-16,6.71572875 8.8817842e-16,15 C8.8817842e-16,23.2842712 6.71572875,30 15,30 Z M15,28.8 C7.37847045,28.8 1.2,22.6215295 1.2,15 C1.2,7.37847045 7.37847045,1.2 15,1.2 C22.6215295,1.2 28.8,7.37847045 28.8,15 C28.8,22.6215295 22.6215295,28.8 15,28.8 Z" id="Combined-Shape"></path>
                    </g>
                </g>
            </g>
        </g>
    </g>
</svg>